<?xml version="1.0" encoding="utf-8"?>
<!-- Generator: Adobe Illustrator 15.1.0, SVG Export Plug-In  -->
<!DOCTYPE svg PUBLIC "-//W3C//DTD SVG 1.1//EN" "http://www.w3.org/Graphics/SVG/1.1/DTD/svg11.dtd" [
	<!ENTITY ns_flows "http://ns.adobe.com/Flows/1.0/">
]>
<svg version="1.1"
	 xmlns="http://www.w3.org/2000/svg" xmlns:xlink="http://www.w3.org/1999/xlink" xmlns:a="http://ns.adobe.com/AdobeSVGViewerExtensions/3.0/"
	 x="0px" y="0px" width="1005px" height="420px" viewBox="-62.141 -49.692 1005 420"
	 overflow="visible" enable-background="new -62.141 -49.692 1005 420" xml:space="preserve">
<defs>
</defs>
<path fill="#94C11A" d="M554.122,26.561c-0.391,5.76-1.18,11.701-2.371,17.826c-1.191,6.127-2.791,12.092-4.805,17.893
	s-4.395,11.246-7.145,16.332c-2.75,5.088-5.877,9.471-9.383,13.15h-9.547l-4.287-27.275l-0.52-6.623l-3.57,7.014l-14.613,26.885
	H484.05l4.352-65.201h10.91l-3.832,44.291l-0.975,9.871l4.547-8.639l15.586-29.287h8.117l4.611,28.898l1.234,8.637
	c2.207-3.332,4.156-7.078,5.844-11.234c1.689-4.156,3.117-8.551,4.287-13.184c1.168-4.631,2.1-9.438,2.791-14.416
	c0.693-4.979,1.17-9.957,1.43-14.938H554.122z"/>
<path fill="#94C11A" d="M571.267,62.799c-0.217,1.125-0.379,2.186-0.486,3.182c-0.109,0.996-0.162,1.971-0.162,2.922
	c0,4.721,1.406,8.336,4.221,10.846c2.812,2.512,7.164,3.766,13.053,3.766c3.809,0,7.588-0.279,11.332-0.844
	c3.744-0.562,7.09-1.211,10.033-1.947v9.285c-3.246,0.867-6.895,1.57-10.941,2.111c-4.049,0.541-8.15,0.812-12.307,0.812
	c-9.18,0-15.955-2.047-20.326-6.137c-4.375-4.092-6.561-10.012-6.561-17.762c0-5.975,0.932-11.604,2.793-16.885
	s4.438-9.904,7.729-13.865c3.289-3.961,7.197-7.1,11.721-9.416s9.449-3.475,14.775-3.475c3.68,0,6.959,0.434,9.838,1.299
	s5.314,2.057,7.307,3.57c1.99,1.518,3.506,3.303,4.545,5.359s1.559,4.275,1.559,6.656c0,3.117-0.66,5.932-1.98,8.441
	c-1.32,2.512-3.42,4.666-6.299,6.463c-2.881,1.797-6.592,3.182-11.137,4.156c-4.547,0.973-10.045,1.461-16.496,1.461H571.267z
	 M583.347,54.096c4.805,0,8.775-0.291,11.916-0.877c3.139-0.584,5.627-1.373,7.469-2.369c1.84-0.996,3.127-2.145,3.863-3.443
	s1.104-2.639,1.104-4.025c0-1.211-0.238-2.359-0.713-3.441c-0.479-1.082-1.225-2.035-2.242-2.857s-2.295-1.473-3.83-1.949
	c-1.537-0.475-3.346-0.715-5.424-0.715c-2.814,0-5.379,0.467-7.695,1.396c-2.316,0.932-4.406,2.252-6.266,3.963
	c-1.863,1.711-3.508,3.777-4.936,6.201c-1.43,2.426-2.643,5.131-3.637,8.117H583.347z"/>
<path fill="#94C11A" d="M647.46,92.541c-4.762,0-9.135-0.477-13.117-1.428c-3.984-0.953-7.771-2.252-11.365-3.896L640.382,0h11.301
	l-5.066,25.262l-4.221,15.717c1.342-2.424,2.879-4.6,4.611-6.527c1.73-1.926,3.625-3.561,5.682-4.902s4.242-2.371,6.559-3.086
	c2.316-0.713,4.709-1.07,7.176-1.07c3.117,0,5.834,0.529,8.15,1.59c2.316,1.062,4.232,2.545,5.748,4.449
	c1.516,1.906,2.641,4.211,3.377,6.916c0.736,2.707,1.104,5.705,1.104,8.994c0,6.234-0.811,12.09-2.436,17.566
	c-1.623,5.479-4.016,10.262-7.176,14.354c-3.16,4.09-7.068,7.328-11.721,9.707C658.815,91.352,653.478,92.541,647.46,92.541z
	 M673.372,48.381c0-4.156-0.703-7.381-2.109-9.676c-1.408-2.295-3.713-3.441-6.918-3.441c-1.861,0-3.723,0.434-5.584,1.299
	s-3.68,2.057-5.455,3.57c-1.775,1.518-3.453,3.291-5.033,5.326s-3.031,4.211-4.352,6.527s-2.457,4.707-3.408,7.176
	c-0.953,2.467-1.668,4.914-2.145,7.338l-2.791,14.092c2.033,0.867,4.133,1.549,6.299,2.047c2.164,0.498,4.156,0.746,5.975,0.746
	c3.549,0,6.645-0.605,9.287-1.818c2.641-1.211,4.902-2.793,6.785-4.74c1.885-1.949,3.432-4.178,4.645-6.689
	c1.211-2.51,2.176-5.066,2.889-7.664c0.715-2.598,1.213-5.119,1.494-7.564S673.372,50.287,673.372,48.381z"/>
<path fill="#006531" d="M554.122,131.561c-0.391,5.76-1.18,11.701-2.371,17.826c-1.191,6.127-2.791,12.092-4.805,17.893
	s-4.395,11.246-7.145,16.332c-2.75,5.088-5.877,9.471-9.383,13.15h-9.547l-4.287-27.275l-0.52-6.623l-3.57,7.014l-14.613,26.885
	H484.05l4.352-65.201h10.91l-3.832,44.291l-0.975,9.871l4.547-8.639l15.586-29.287h8.117l4.611,28.898l1.234,8.637
	c2.207-3.332,4.156-7.078,5.844-11.234c1.689-4.156,3.117-8.551,4.287-13.184c1.168-4.631,2.1-9.438,2.791-14.416
	c0.693-4.979,1.17-9.957,1.43-14.938H554.122z"/>
<path fill="#006531" d="M582.437,197.932c-7.793,0-13.865-2.002-18.217-6.008c-4.35-4.004-6.525-10.012-6.525-18.021
	c0-3.592,0.379-7.152,1.137-10.682c0.756-3.529,1.871-6.906,3.344-10.131c1.471-3.225,3.289-6.225,5.455-8.996
	c2.164-2.77,4.654-5.172,7.469-7.207c2.812-2.035,5.92-3.627,9.318-4.773s7.09-1.721,11.072-1.721c3.896,0,7.371,0.51,10.424,1.525
	c3.053,1.018,5.627,2.533,7.729,4.547c2.1,2.012,3.711,4.523,4.838,7.533c1.125,3.01,1.688,6.504,1.688,10.486
	c0,3.551-0.379,7.09-1.137,10.619s-1.873,6.906-3.344,10.131c-1.473,3.225-3.291,6.225-5.455,8.994
	c-2.166,2.771-4.643,5.174-7.436,7.209s-5.9,3.627-9.318,4.773C590.056,197.357,586.376,197.932,582.437,197.932z M608.608,155.654
	c0-5.238-1.234-9.156-3.701-11.754c-2.469-2.598-6.062-3.896-10.781-3.896c-2.686,0-5.174,0.465-7.469,1.396
	s-4.361,2.207-6.201,3.83c-1.842,1.625-3.465,3.508-4.871,5.65s-2.576,4.416-3.506,6.818c-0.932,2.404-1.635,4.895-2.111,7.469
	c-0.477,2.576-0.715,5.076-0.715,7.5c0,5.24,1.234,9.168,3.703,11.787c2.467,2.621,6.061,3.93,10.779,3.93
	c2.729,0,5.229-0.465,7.5-1.396c2.273-0.93,4.33-2.207,6.17-3.832c1.84-1.623,3.463-3.506,4.871-5.648
	c1.406-2.145,2.574-4.428,3.506-6.852s1.635-4.926,2.111-7.502C608.37,160.58,608.608,158.08,608.608,155.654z"/>
<path fill="#006531" d="M631.085,161.498c0.172-0.82,0.357-1.904,0.553-3.246c0.193-1.342,0.422-3.15,0.682-5.422
	c0.26-2.273,0.584-5.131,0.973-8.572c0.391-3.443,0.846-7.674,1.365-12.697h10.65l-1.625,15.066c1.516-2.207,3.16-4.295,4.936-6.266
	s3.725-3.691,5.846-5.164c2.121-1.471,4.438-2.641,6.949-3.506c2.51-0.865,5.26-1.299,8.246-1.299c7.145,0,12.08,2.23,14.807,6.688
	c2.729,4.461,3.16,10.91,1.299,19.354h-11.494c0.65-2.988,0.975-5.52,0.975-7.598s-0.293-3.756-0.877-5.033
	s-1.451-2.209-2.598-2.793s-2.521-0.877-4.123-0.877c-3.117,0-6.148,0.941-9.092,2.826c-2.945,1.883-5.641,4.35-8.086,7.402
	s-4.545,6.484-6.299,10.293c-1.754,3.811-3.02,7.643-3.799,11.494l-4.936,24.613h-11.43L631.085,161.498z"/>
<path fill="#006531" d="M746.882,196.762h-14.223l-22.08-33.639c5.672-0.391,10.424-1.049,14.254-1.98
	c3.832-0.932,6.906-2.078,9.223-3.443c2.314-1.363,3.971-2.898,4.967-4.609s1.494-3.518,1.494-5.424
	c0-1.039-0.162-2.014-0.486-2.922c-0.324-0.91-0.822-1.699-1.494-2.371c-0.672-0.67-1.516-1.211-2.533-1.623
	c-1.018-0.41-2.219-0.617-3.604-0.617c-2.771,0-5.531,0.953-8.279,2.857c-2.75,1.906-5.305,4.385-7.664,7.436
	c-2.359,3.053-4.416,6.484-6.17,10.293c-1.752,3.811-3.02,7.621-3.799,11.43l-4.936,24.613h-11.299L708.565,105h11.301
	l-5.262,26.561l-3.637,13.832c1.213-2.25,2.664-4.295,4.352-6.137c1.689-1.84,3.551-3.418,5.586-4.74
	c2.033-1.32,4.199-2.338,6.494-3.053c2.293-0.713,4.676-1.07,7.143-1.07c2.771,0,5.229,0.4,7.371,1.201s3.951,1.938,5.422,3.408
	c1.473,1.473,2.588,3.227,3.346,5.262c0.756,2.035,1.137,4.285,1.137,6.754c0,3.246-0.748,6.104-2.24,8.572
	c-1.494,2.467-3.422,4.6-5.781,6.396s-5.021,3.258-7.986,4.383c-2.967,1.127-5.922,1.949-8.865,2.469L746.882,196.762z"/>
<path fill="#006531" d="M769.358,167.799c-0.217,1.125-0.379,2.186-0.486,3.182c-0.109,0.996-0.162,1.971-0.162,2.922
	c0,4.721,1.406,8.336,4.221,10.846c2.812,2.512,7.164,3.766,13.053,3.766c3.809,0,7.588-0.279,11.332-0.844
	c3.744-0.562,7.09-1.211,10.033-1.947v9.285c-3.246,0.867-6.895,1.57-10.941,2.111c-4.049,0.541-8.15,0.812-12.307,0.812
	c-9.18,0-15.955-2.047-20.326-6.137c-4.375-4.092-6.561-10.012-6.561-17.762c0-5.975,0.932-11.604,2.793-16.885
	s4.438-9.904,7.729-13.865c3.289-3.961,7.197-7.1,11.721-9.416s9.449-3.475,14.775-3.475c3.68,0,6.959,0.434,9.838,1.299
	s5.314,2.057,7.307,3.57c1.99,1.518,3.506,3.303,4.545,5.359s1.559,4.275,1.559,6.656c0,3.117-0.66,5.932-1.98,8.441
	c-1.32,2.512-3.42,4.666-6.299,6.463c-2.881,1.797-6.592,3.182-11.137,4.156c-4.547,0.973-10.045,1.461-16.496,1.461H769.358z
	 M781.438,159.096c4.805,0,8.775-0.291,11.916-0.877c3.139-0.584,5.627-1.373,7.469-2.369c1.84-0.996,3.127-2.145,3.863-3.443
	s1.104-2.639,1.104-4.025c0-1.211-0.238-2.359-0.713-3.441c-0.479-1.082-1.225-2.035-2.242-2.857s-2.295-1.473-3.83-1.949
	c-1.537-0.475-3.346-0.715-5.424-0.715c-2.814,0-5.379,0.467-7.695,1.396c-2.316,0.932-4.406,2.252-6.266,3.963
	c-1.863,1.711-3.508,3.777-4.936,6.201c-1.43,2.426-2.643,5.131-3.637,8.117H781.438z"/>
<path fill="#006531" d="M828.839,161.498c0.172-0.82,0.355-1.904,0.551-3.246s0.422-3.15,0.682-5.422
	c0.26-2.273,0.586-5.131,0.975-8.572c0.391-3.443,0.844-7.674,1.363-12.697h10.65l-1.623,15.066c1.516-2.207,3.16-4.295,4.936-6.266
	s3.723-3.691,5.846-5.164c2.119-1.471,4.436-2.641,6.947-3.506s5.262-1.299,8.248-1.299c7.145,0,12.08,2.23,14.807,6.688
	c2.729,4.461,3.16,10.91,1.299,19.354h-11.494c0.648-2.988,0.975-5.52,0.975-7.598s-0.293-3.756-0.877-5.033
	c-0.586-1.277-1.451-2.209-2.598-2.793c-1.148-0.584-2.523-0.877-4.125-0.877c-3.117,0-6.148,0.941-9.092,2.826
	c-2.943,1.883-5.639,4.35-8.084,7.402c-2.447,3.053-4.547,6.484-6.301,10.293c-1.752,3.811-3.02,7.643-3.799,11.494l-4.936,24.613
	h-11.43L828.839,161.498z"/>
<path fill="#CC0106" d="M490.296,271.275c0.174-0.832,0.361-1.93,0.559-3.289s0.428-3.191,0.691-5.494
	c0.262-2.303,0.592-5.197,0.986-8.684s0.855-7.773,1.381-12.861h10.789l-1.645,15.264c3.07-5.307,6.744-9.375,11.02-12.205
	c4.277-2.828,8.914-4.242,13.914-4.242c6.975,0,11.918,2.105,14.836,6.314c2.916,4.211,3.541,10.418,1.875,18.619l-8.486,42.301
	h-11.447l8.486-42.17c1.096-5.35,1.02-9.221-0.23-11.611s-3.629-3.586-7.139-3.586c-2.807,0-5.602,0.967-8.387,2.895
	c-2.785,1.932-5.385,4.441-7.797,7.533s-4.506,6.568-6.281,10.428c-1.777,3.859-3.061,7.719-3.85,11.578l-5,24.934h-11.447
	L490.296,271.275z"/>
<path fill="#CC0106" d="M559.292,271.275c0.174-0.832,0.361-1.93,0.559-3.289s0.428-3.191,0.691-5.494
	c0.262-2.303,0.592-5.197,0.986-8.684s0.855-7.773,1.381-12.861h10.789l-1.645,15.264c1.535-2.238,3.201-4.354,5-6.35
	c1.799-1.994,3.771-3.738,5.922-5.23c2.148-1.49,4.494-2.674,7.039-3.553c2.543-0.875,5.328-1.314,8.355-1.314
	c7.236,0,12.236,2.26,14.998,6.775c2.764,4.518,3.201,11.053,1.316,19.605H603.04c0.658-3.027,0.986-5.592,0.986-7.697
	s-0.295-3.805-0.887-5.1c-0.592-1.293-1.471-2.236-2.633-2.828s-2.555-0.889-4.178-0.889c-3.156,0-6.227,0.955-9.209,2.863
	c-2.984,1.906-5.713,4.406-8.191,7.498c-2.479,3.094-4.605,6.57-6.381,10.428c-1.777,3.861-3.059,7.742-3.85,11.645l-4.998,24.934
	h-11.58L559.292,271.275z"/>
<path fill="#CC0106" d="M692.472,240.947c-0.395,5.834-1.195,11.854-2.4,18.059c-1.207,6.207-2.828,12.248-4.869,18.125
	c-2.039,5.877-4.451,11.393-7.236,16.545c-2.785,5.154-5.953,9.596-9.506,13.322h-9.672l-4.342-27.631l-0.525-6.709l-3.619,7.104
	l-14.801,27.236h-14.014l4.408-66.051h11.053l-3.883,44.867l-0.986,10l4.605-8.75l15.789-29.67h8.223l4.672,29.275l1.25,8.75
	c2.236-3.377,4.211-7.172,5.92-11.381c1.711-4.211,3.158-8.662,4.342-13.355c1.186-4.693,2.127-9.561,2.83-14.605
	c0.701-5.043,1.184-10.086,1.447-15.131H692.472z"/>
<path fill="#006531" d="M301.872,143.297l-26.49-45.42l-38.479-65.99c-1.73-2.951-5.16-5.541-8.761-6.881
	c-1.659-0.609-3.35-0.959-4.92-0.959h-74.699c-5,0-7.021,3.529-4.511,7.84l39.08,66.82l0.158,0.27l76.752,131.25l38.23,65.369
	c1.39,2.381,3.26,3.441,5.06,3.17c0.21-0.029,0.42-0.08,0.62-0.139c0.26-0.08,0.51-0.191,0.76-0.32c0.25-0.141,0.49-0.301,0.73-0.49
	c0.12-0.09,0.239-0.189,0.359-0.301c0.55-0.51,1.07-1.17,1.54-1.988l36.59-64.602c2.471-4.34,2.42-11.43-0.1-15.75L301.872,143.297z
	"/>
<path fill="#94C11A" d="M452.422,23.336h-73.88c-5,0-11.1,3.57-13.55,7.92l-63.12,112.041l41.92,71.879
	c2.52,4.32,2.57,11.41,0.1,15.75l113.141-199.68C459.492,26.896,457.422,23.336,452.422,23.336z"/>
<path fill="#94C11A" d="M236.902,31.887l38.479,65.99l37.75-66.631c2.46-4.35,0.391-7.91-4.609-7.91h-73.891
	c-2.08,0-4.359,0.631-6.49,1.67C231.742,26.346,235.172,28.936,236.902,31.887z"/>
<path fill="#94C11A" d="M183.25,98.977l-25.438,44.609l42.351,71.871c2.04,3.459,2.479,8.709,1.3,12.889l28.423-49.629
	L183.25,98.977z"/>
<path fill="#CC0106" d="M157.812,143.586L93.372,34.256c-2.54-4.299-8.71-7.83-13.71-7.84l-74.08-0.16c-5,0-7.021,3.51-4.49,7.82
	l114.57,194.77l39.17,66.602c1.479,2.52,3.5,3.539,5.41,3.1c1.359-0.32,2.66-1.371,3.689-3.18l36.37-64.17
	c0.48-0.861,0.87-1.82,1.16-2.852c1.18-4.18,0.74-9.43-1.3-12.889L157.812,143.586z"/>
</svg>
