<?xml version="1.0" encoding="utf-8"?>
<!-- Generator: Adobe Illustrator 19.2.1, SVG Export Plug-In . SVG Version: 6.00 Build 0)  -->
<svg version="1.1" id="Ebene_1" xmlns="http://www.w3.org/2000/svg" xmlns:xlink="http://www.w3.org/1999/xlink" x="0px" y="0px"
	 viewBox="0 0 156.2 39" style="enable-background:new 0 0 156.2 39;" xml:space="preserve">
<style type="text/css">
	.st0{fill:#FFFFFF;}
</style>
<g>
	<path class="st0" d="M145.4,17.7c0-2.4-0.8-3.6-2.3-3.6c-1.8,0-2.7,1.2-2.7,3.6H145.4z M140.3,20.7c0,1.1,0.3,2.1,0.8,2.8
		c0.5,0.7,1.4,1.1,2.8,1.1c0.7,0,1.4-0.1,1.9-0.2c0.6-0.2,1-0.3,1.3-0.4c0.6-0.3,1-0.3,1.2-0.1l0.8,1.9c0.3,0.4,0.1,0.8-0.4,1
		c-0.6,0.4-1.4,0.7-2.3,0.9c-1,0.2-1.9,0.3-2.8,0.3c-1.1,0-2.1-0.2-2.9-0.4c-0.8-0.3-1.5-0.7-2-1.2c-0.5-0.5-0.9-1-1.3-1.6
		c-0.4-0.6-0.6-1.2-0.8-1.8c-0.2-0.6-0.3-1.2-0.3-1.7c0-0.5-0.1-1-0.1-1.4c0-1.3,0.2-2.4,0.5-3.5c0.3-1.1,0.8-2,1.4-2.8
		c0.6-0.8,1.3-1.4,2.2-1.9c0.9-0.4,1.9-0.7,3-0.7c1,0,1.9,0.2,2.6,0.4c0.7,0.3,1.3,0.7,1.8,1.2c0.5,0.5,0.8,1,1.1,1.7
		c0.3,0.6,0.5,1.2,0.6,1.9c0.2,0.7,0.3,1.3,0.3,1.9c0,0.6,0,1.1,0,1.5c0,0.7-0.2,1-0.7,1H140.3z M126.3,14.7H124
		c-0.3,0-0.4-0.1-0.4-0.5v-2.1c0-0.3,0.1-0.4,0.4-0.4h2.3v-4c0-0.3,0.2-0.5,0.5-0.6l2.8-0.4c0.5-0.1,0.7,0.1,0.7,0.5v4.5h3.6
		c0.4,0,0.6,0.2,0.5,0.6l-0.4,1.9c-0.1,0.3-0.3,0.5-0.5,0.5h-3.3v7.7v0.8c0,0.2,0,0.4,0.1,0.6c0.1,0.2,0.2,0.3,0.4,0.4
		c0.2,0.1,0.4,0.2,0.8,0.2c0.2,0,0.5,0,0.7-0.1c0.3-0.1,0.6-0.2,1-0.3c0.4-0.2,0.7-0.2,0.9,0l0.6,2.6c0,0.5-0.2,0.8-0.8,0.9
		c-0.5,0.2-1.1,0.3-1.7,0.4c-0.6,0.1-1.2,0.1-1.8,0.1c-1.1,0-1.9-0.2-2.5-0.5c-0.6-0.3-1-0.8-1.3-1.4c-0.3-0.6-0.4-1.2-0.5-2
		c-0.1-0.7-0.1-1.5-0.1-2.3V14.7z M117.1,20.3c-0.5,0-1.1,0-1.6,0.1c-0.5,0.1-1,0.2-1.4,0.4c-0.4,0.2-0.8,0.4-1,0.8
		c-0.3,0.3-0.4,0.8-0.4,1.3c0,0.7,0.2,1.2,0.6,1.6c0.4,0.4,0.9,0.6,1.5,0.6c0.4,0,0.8-0.1,1.2-0.3c0.4-0.2,0.8-0.5,1.1-0.9V20.3z
		 M119,28c-0.3,0-0.5-0.1-0.7-0.3c-0.3-0.5-0.5-1-0.6-1.5c-0.6,0.6-1.2,1.1-1.9,1.4c-0.6,0.3-1.4,0.5-2.3,0.5
		c-1.4,0-2.6-0.4-3.5-1.3c-0.9-0.9-1.3-2.1-1.3-3.5c0-1.9,0.7-3.3,2-4.2c1.5-0.9,3.6-1.3,6.4-1.3v-1c0-0.2,0-0.5,0-0.9
		c0-0.3-0.1-0.6-0.3-0.9c-0.1-0.2-0.4-0.3-0.6-0.5c-0.3-0.1-0.6-0.2-1.1-0.2c-0.4,0-0.9,0-1.3,0.1c-0.4,0.1-0.9,0.2-1.3,0.3
		c-1.1,0.5-1.7,0.5-1.8,0.1l-0.7-1.9c-0.1-0.4,0.1-0.7,0.7-1c0.3-0.2,0.7-0.3,1.1-0.4c0.4-0.1,0.9-0.2,1.3-0.3
		c0.4-0.1,0.9-0.1,1.3-0.2c0.4,0,0.8,0,1.1,0c1,0,1.9,0.1,2.8,0.4c0.9,0.3,1.5,0.8,2,1.6c0.3,0.6,0.5,1.1,0.6,1.7
		c0.1,0.6,0.1,1.1,0.1,1.4v6.2c0,0.5,0,1,0.1,1.5c0,0.5,0.2,1.1,0.4,1.7c0.1,0.3,0.2,0.5,0.3,0.7c0.1,0.2,0,0.4-0.2,0.5L119,28z
		 M102,15.5c-0.4-0.3-0.8-0.6-1.1-0.7c-0.3-0.2-0.8-0.2-1.2-0.2c-0.7,0-1.2,0.2-1.6,0.6c-0.4,0.4-0.7,0.8-0.8,1.3
		c-0.2,0.5-0.3,1-0.3,1.6c0,0.5-0.1,1-0.1,1.4c0,0.6,0,1.1,0.1,1.7c0.1,0.6,0.2,1.1,0.4,1.5c0.2,0.4,0.5,0.8,0.8,1.1
		c0.3,0.3,0.8,0.4,1.4,0.4c0.4,0,0.9-0.1,1.3-0.3c0.5-0.2,0.9-0.4,1.2-0.8V15.5z M105.8,21.3l0.2,7.4c0,0.2,0,0.5,0,0.9
		c0,0.4-0.1,0.8-0.2,1.2c-0.1,0.4-0.3,0.8-0.6,1.3c-0.3,0.4-0.6,0.8-1.1,1.1c-0.5,0.3-1,0.6-1.7,0.8c-0.7,0.2-1.5,0.3-2.5,0.3
		c-0.5,0-0.9,0-1.5-0.1c-0.5-0.1-1.1-0.1-1.6-0.3c-0.6-0.1-1.1-0.3-1.6-0.4c-0.5-0.2-1-0.3-1.4-0.5c-0.4-0.2-0.5-0.5-0.4-0.8
		l0.7-2.2c0.2-0.3,0.5-0.3,1-0.1c0.4,0.2,1,0.3,1.8,0.6c0.8,0.2,1.7,0.3,2.8,0.3c0.6,0,1.1-0.1,1.4-0.2c0.3-0.2,0.6-0.4,0.8-0.6
		c0.2-0.2,0.3-0.5,0.3-0.9c0-0.3,0-0.6,0-1c0-0.4,0-0.8,0-1.1c0-0.3,0-0.7-0.1-1c-0.6,0.4-1.2,0.7-1.8,0.9c-0.6,0.2-1.2,0.3-2.1,0.3
		c-0.7,0-1.3-0.1-2-0.4c-0.7-0.2-1.2-0.7-1.8-1.3c-0.5-0.6-0.9-1.4-1.3-2.4c-0.3-1-0.5-2.2-0.5-3.8c0-1.4,0.1-2.6,0.4-3.7
		c0.3-1,0.7-1.9,1.3-2.6c0.5-0.7,1.2-1.2,1.9-1.6c0.8-0.3,1.6-0.5,2.5-0.5c0.6,0,1.1,0.1,1.5,0.2c0.4,0.1,0.8,0.3,1.2,0.5
		c0.4,0.2,0.7,0.5,1,0.8c0.1-0.3,0.2-0.6,0.5-0.9c0.2-0.4,0.6-0.5,1-0.5l2.5,0.9c0.4,0.3,0.4,0.8,0,1.6c-0.4,0.8-0.6,1.7-0.6,2.8
		V21.3z M80.5,24.3c0.4,0.3,0.9,0.4,1.3,0.5c0.4,0.1,0.7,0.1,1,0.1c0.4,0,0.8-0.1,1.2-0.2c0.4-0.2,0.8-0.5,1.1-1.1
		c0-0.1,0.1-0.2,0.1-0.3c0.1-0.2,0.1-0.4,0.2-0.7c0.1-0.3,0.1-0.7,0.1-1.2c0-0.5,0.1-1.1,0.1-1.9c0-0.7-0.1-1.4-0.2-2.1
		c-0.1-0.7-0.3-1.3-0.5-1.8c-0.4-0.8-1.1-1.2-2-1.2c-0.5,0-1,0.1-1.4,0.4c-0.4,0.2-0.8,0.5-1.1,0.9V24.3z M80.5,33.1
		c-0.1,0.3-0.3,0.5-0.6,0.6l-3.1,0.6c-0.2,0-0.3-0.1-0.3-0.3V17.4c0-2-0.2-3.5-0.5-4.5c-0.1-0.4-0.1-0.7,0.2-0.9l2.4-0.8
		c0.7-0.1,1.1,0.2,1.2,0.7c0.1,0.4,0.2,0.7,0.3,0.9c0.7-0.6,1.4-1.1,2-1.3c0.7-0.2,1.3-0.4,2-0.4c0.8,0,1.6,0.1,2.2,0.4
		c0.7,0.3,1.3,0.8,1.8,1.6c0.3,0.5,0.6,1,0.8,1.5c0.2,0.5,0.4,1.1,0.5,1.7c0.1,0.6,0.2,1.1,0.2,1.7c0,0.5,0.1,1.1,0.1,1.5
		c0,0.5,0,1,0,1.6c0,0.5-0.1,1.1-0.2,1.6c-0.1,0.6-0.3,1.1-0.5,1.6c-0.2,0.5-0.5,1.1-0.9,1.6c-0.5,0.7-1.2,1.3-1.9,1.7
		c-0.7,0.3-1.6,0.5-2.7,0.5c-0.3,0-0.7,0-1.2-0.1c-0.5-0.1-1.1-0.3-1.8-0.7V33.1z M67.9,5c0.5-0.5,1.1-0.8,1.9-0.8
		c0.7,0,1.3,0.3,1.9,0.8c0.5,0.5,0.8,1.1,0.8,1.9c0,0.7-0.3,1.3-0.8,1.9c-0.5,0.5-1.1,0.8-1.9,0.8c-0.7,0-1.3-0.3-1.9-0.8
		c-0.5-0.5-0.8-1.1-0.8-1.9C67.2,6.2,67.4,5.6,67.9,5 M65.3,14.7c-0.3,0-0.4-0.1-0.4-0.5v-2.1c0-0.3,0.1-0.4,0.4-0.4h6.1
		c0.3,0,0.4,0.2,0.4,0.4V27c0,0.3-0.1,0.4-0.4,0.4h-3.2c-0.3,0-0.4-0.2-0.4-0.4V14.7H65.3z M62,14.9c-0.1,0.3-0.5,0.3-1.1-0.1
		c-0.7-0.2-1.3-0.3-1.7-0.4c-0.4-0.1-0.8-0.1-1.2-0.1c-1.4,0-2.1,0.5-2.1,1.5c0,0.5,0.1,0.9,0.4,1.2c0.2,0.3,0.9,0.5,2,0.8
		c1.4,0.3,2.5,0.9,3.4,1.7c1,0.8,1.5,1.9,1.5,3.4c-0.2,3.4-2,5.2-5.5,5.2c-0.8,0-1.6-0.1-2.4-0.3c-0.8-0.2-1.8-0.6-3-1.1
		c-0.5-0.3-0.6-0.6-0.5-1l0.8-1.9c0.2-0.3,0.6-0.3,1.1,0.1c1,0.4,1.7,0.6,2.2,0.8c0.5,0.1,1,0.2,1.5,0.2c1.3,0,1.9-0.5,1.9-1.5
		c0-1.1-0.9-1.8-2.6-2.1c-0.6-0.2-1.1-0.4-1.6-0.6c-0.5-0.2-1.1-0.6-1.8-1.3c-0.4-0.4-0.7-0.9-0.8-1.4c-0.2-0.5-0.2-1-0.2-1.5
		c0-0.7,0.1-1.3,0.3-2c0.2-0.6,0.6-1.2,1-1.7c0.5-0.5,1.1-0.9,1.8-1.2c0.7-0.3,1.6-0.5,2.6-0.5c0.6,0,1.3,0.1,2,0.2
		c0.7,0.1,1.4,0.3,2,0.6c0.6,0.2,0.9,0.5,0.9,1L62,14.9z"/>
	<g>
		<g>
			<defs>
				<path id="SVGID_1_" d="M28.5,1.6l-2.6,0c0,0-2.5,0-2.5,2.5l0,10.3c0,0,0,0,0.1,0c0.2,0,0.4,0.1,0.6,0.1c1.1,0,1.8-0.3,2.4-1
					c0.5-0.7,0.8-1.7,0.8-3.2c0-0.6,0-1.3,0-2c0-0.8,0-1.2,0-1.4C27.2,4.6,27.6,2.9,28.5,1.6 M41.8,4c0,0,0-2.5-2.4-2.5l-5.8,0
					C33.2,1.8,33,2,32.8,2.3c-0.5,0.8-0.7,2.1-0.7,3.9c0,0.1,0,0.4,0,0.9c0,0.5,0,1,0,1.4c0,1.4-0.1,2.4-0.3,3.2
					c-0.2,0.8-0.5,1.4-0.9,2c-0.6,0.8-1.3,1.4-2.1,1.8c-0.8,0.4-1.8,0.6-2.8,0.6c-0.5,0-1,0-1.5-0.1c-0.4-0.1-0.8-0.2-1.2-0.4l0,1.9
					c0,0,0,2.5,2.4,2.5l13.4,0c0,0,2.5,0,2.5-2.5L41.8,4z"/>
			</defs>
			<use xlink:href="#SVGID_1_"  style="overflow:visible;fill:#F39910;"/>
			<clipPath id="SVGID_2_">
				<use xlink:href="#SVGID_1_"  style="overflow:visible;"/>
			</clipPath>
		</g>
		<g>
			<defs>
				<path id="SVGID_3_" d="M21.8,19.1l0-12.2c-0.2,0-0.5,0-0.7,0c-1.3,0-2.6,0.2-3.8,0.3c-0.2,0.8-0.4,1.6-0.6,2.4
					c-1,4.4-1.3,8.7-0.9,12.7c0.3,2.5,0.8,4.9,1.7,7.2c4.2,0.7,8.2,0.7,11.9,0.1c0.4-0.1,0.7-0.1,1-0.2c0.7-2.7,1.1-5.3,1.3-7.8
					l-7.5,0C21.8,21.5,21.8,19.1,21.8,19.1 M31.8,29.1c2.9-0.7,5.5-1.9,8-3.4l0.6-4.1c-0.1,0-0.3,0-0.3,0l-7.1,0
					C32.8,24,32.5,26.5,31.8,29.1 M31.5,30.5c-0.4,1.6-0.9,3.1-1.6,4.7l3.9,0.5c0,0,4.6,0.6,5.2-3.9l0.6-4.5
					C37.1,28.8,34.4,29.8,31.5,30.5 M18.1,30.9c0.4,1,0.9,1.9,1.4,2.8l9.1,1.2c0.6-1.4,1.1-2.8,1.5-4.2c-0.2,0-0.3,0.1-0.5,0.1
					C26,31.5,22.1,31.5,18.1,30.9 M16.6,30.7c-4.2-0.8-7.7-2-10.1-3c0,1.1,0.2,4.3,4,4.8l7.4,1C17.4,32.6,17,31.7,16.6,30.7 M16,7.4
					C12.9,7.9,10.4,8.6,9,9L6.7,26.4c2.2,0.9,5.5,2.1,9.4,2.9c-0.8-2.2-1.3-4.5-1.5-6.8c-0.5-4.2-0.1-8.6,0.9-13.2
					C15.6,8.6,15.8,8,16,7.4 M16.4,6c0.7-2.1,1.4-4,2-5.5L14.9,0c0,0-4.6-0.6-5.2,3.9L9.2,7.6C10.8,7.1,13.3,6.4,16.4,6 M22.9,1.1
					l-3.1-0.4c-0.6,1.4-1.3,3.2-2,5.1c1-0.1,2.1-0.2,3.3-0.2c0.3,0,0.5,0,0.8,0l0-2.4C21.8,2,22.3,1.5,22.9,1.1"/>
			</defs>
			<use xlink:href="#SVGID_3_"  style="overflow:visible;fill:#009EE0;"/>
			<clipPath id="SVGID_4_">
				<use xlink:href="#SVGID_3_"  style="overflow:visible;"/>
			</clipPath>
		</g>
	</g>
</g>
</svg>
